<?xml version="1.0" encoding="UTF-8"?>
<svg width="502px" height="241px" viewBox="0 0 502 241" version="1.1" xmlns="http://www.w3.org/2000/svg" xmlns:xlink="http://www.w3.org/1999/xlink">
    <!-- Generator: Sketch 52 (66869) - http://www.bohemiancoding.com/sketch -->
    <title>Logo</title>
    <desc>Created with Sketch.</desc>
    <defs>
        <polygon id="path-1" points="0.459565517 0.304141935 36.0053933 0.304141935 36.0053933 53.1199568 0.459565517 53.1199568"></polygon>
        <polygon id="path-3" points="0.250485572 0.683922038 97.1809071 0.683922038 97.1809071 135.754545 0.250485572 135.754545"></polygon>
    </defs>
    <g id="Final-version" stroke="none" stroke-width="1" fill="none" fill-rule="evenodd">
        <g id="Homepage" transform="translate(-469.000000, -189.000000)">
            <g id="Logo" transform="translate(469.000000, 189.000000)">
                <g id="Group-5">
                    <g id="Group" transform="translate(71.000000, 0.000000)">
                        <path d="M12.2173773,50.3744329 C22.6157056,49.5905619 27.8156445,49.231549 38.2201706,48.5778006 C38.4386424,52.1334394 38.5486531,53.9112587 38.7671249,57.4653297 C24.8856432,58.2993684 17.9456771,58.7743942 4.0750415,59.8373232 C2.4450249,38.8844523 1.62846716,28.4025297 0,7.45279419 C3.6009112,7.16432968 5.40291624,7.02636839 9.00537689,6.75358129 C10.2883177,24.1978458 10.932887,32.9254652 12.2173773,50.3744329" id="Fill-1" fill="#42210B"></path>
                        <path d="M110.758543,47.543091 C108.167871,47.6167748 106.872534,47.6559684 104.281861,47.737491 C104.362433,50.3477813 104.401169,51.6537103 104.48174,54.2640006 C95.7537138,54.5399232 91.3904755,54.6998329 82.6639987,55.0651168 C82.557087,52.4563942 82.5044059,51.1504652 82.3959447,48.5401748 C79.8068214,48.648349 78.511485,48.7047877 75.9223616,48.8208006 C75.1151006,30.4735168 74.7091459,21.2975232 73.9034342,2.94553613 C77.5120927,2.78249097 79.3156472,2.70567161 82.9243056,2.55987161 C83.6169077,19.9649426 83.9655329,28.6690458 84.6596845,46.0709813 C91.5361233,45.7903555 94.9743428,45.6633684 101.852331,45.4391813 C101.299179,28.0341103 101.020279,19.3284394 100.464028,1.91552968 C104.074236,1.79951677 105.87779,1.74464581 109.486449,1.64117484 C109.994667,20.0072716 110.251875,29.1879684 110.758543,47.543091" id="Fill-3" fill="#42210B"></path>
                        <g id="Group-7" transform="translate(150.296208, 0.263600)">
                            <mask id="mask-2" fill="white">
                                <use xlink:href="#path-1"></use>
                            </mask>
                            <g id="Clip-6"></g>
                            <path d="M36.0053933,0.373279355 C35.9542616,7.50023419 35.927921,11.0652794 35.8767893,18.1906665 C32.2944715,18.1640148 30.5033126,18.1546084 26.9225442,18.1436342 C26.9333903,14.5801568 26.9380386,12.7976342 26.9488847,9.23572452 C19.9577869,9.21220839 16.462238,9.21534387 9.46959074,9.24983419 C9.53776634,23.2278213 9.57185414,30.2152471 9.63848029,44.1853955 C19.9391936,44.1352277 25.0895502,44.139931 35.3902635,44.2151826 C35.3639229,47.7770923 35.3515273,49.5580471 35.3267362,53.1199568 C24.0188834,53.0368665 18.3634076,53.0352987 7.05555475,53.1042794 C7.04160974,50.5723761 7.03386251,49.3056406 7.01836806,46.7721697 C4.53615647,46.7878471 3.29660011,46.7972535 0.814388522,46.8207697 C0.673388987,30.9505181 0.600565052,23.0130406 0.459565517,7.13495032 C2.98671103,7.11143419 4.2510585,7.10202774 6.77820401,7.08635032 C6.76116011,4.39453742 6.75341289,3.04941484 6.73636899,0.356034194 C18.4439787,0.282350323 24.2977836,0.285485806 36.0053933,0.373279355" id="Fill-5" fill="#42210B" mask="url(#mask-2)"></path>
                        </g>
                        <path d="M237.339404,1.62706516 C237.12558,8.67092968 237.018669,12.1936458 236.803296,19.2359426 C240.224471,19.342549 241.935059,19.3989877 245.356235,19.5197039 C245.478641,15.9593619 245.540619,14.1784071 245.661475,10.6180652 C249.215903,10.7419168 250.994667,10.8093297 254.547545,10.9488587 C254.680797,7.46847161 254.747423,5.72827806 254.882225,2.24632323 C258.489334,2.38898774 260.292889,2.46423935 263.901547,2.62101355 C263.710965,7.09064581 263.6149,9.32467806 263.425867,13.7943103 C260.712788,13.6751619 259.357024,13.6187232 256.645494,13.5089813 C256.541681,16.1600329 256.487451,17.4847748 256.383638,20.1358265 C253.878185,20.0339232 252.624683,19.9853232 250.120779,19.8912587 C249.995274,23.2948265 249.933296,24.9958265 249.809341,28.3962587 C252.303948,28.4903232 253.551252,28.540491 256.047408,28.6408265 C255.942046,31.3295039 255.887815,32.6746265 255.780904,35.3648716 C258.467642,35.4730458 259.809462,35.5294845 262.493101,35.6454974 C262.16152,43.4763684 261.99418,47.39102 261.659499,55.2203232 C258.139159,55.0666845 256.378989,54.9930006 252.8571,54.8550394 C253.128253,47.8143103 253.263055,44.2962974 253.534208,37.2555684 C250.024714,37.1160394 248.269192,37.0501942 244.756599,36.9263426 C244.872808,33.5243426 244.931687,31.8249103 245.049444,28.4213426 C241.642214,28.3021942 239.939373,28.2441877 236.532143,28.139149 C236.212957,38.5850135 236.053364,43.8071619 235.735728,54.2483232 C232.210739,54.1385813 230.450569,54.0868458 226.925581,53.9927813 C227.481832,32.9489813 227.760732,22.4215942 228.315434,1.36368452 C231.925642,1.46245226 233.730745,1.51418774 237.339404,1.62706516" id="Fill-8" fill="#42210B"></path>
                        <path d="M314.749698,58.2115748 C315.459344,47.7092716 315.814167,42.4542006 316.522264,31.9487619 C313.948635,31.7716071 312.662595,31.6838135 310.090516,31.5144974 C310.264053,28.8289555 310.350822,27.4854006 310.522811,24.7998587 C307.825226,24.6211361 306.475659,24.5349103 303.776525,24.3640265 C304.256853,16.5409942 304.495468,12.6310458 304.975796,4.80801355 C308.582905,5.03376839 310.38646,5.15134903 313.99047,5.39278129 C313.527186,12.4632974 313.296318,15.9969877 312.833034,23.0675039 C315.254817,23.230549 316.464934,23.3136394 318.888267,23.4813877 C318.719377,25.9693942 318.634158,27.2141813 318.463719,29.70062 C320.603503,29.8511232 321.67262,29.9279426 323.812404,30.083149 C323.987492,27.5951426 324.07736,26.3503555 324.252447,23.8639168 C326.712966,24.0426394 327.944775,24.1320006 330.405295,24.3185619 C330.924359,17.252749 331.184666,13.7190587 331.705279,6.65481355 C335.310839,6.9260329 337.111295,7.06556194 340.713755,7.35245871 C340.104823,15.1645168 339.802681,19.0713297 339.193749,26.8865232 C336.458978,26.6670394 335.089268,26.5604329 332.351398,26.3519232 C332.15152,29.0374652 332.052355,30.3778845 331.852477,33.0634265 C329.281947,32.865891 327.995907,32.7702587 325.425377,32.5821297 C324.672347,43.0844329 324.297381,48.3363684 323.54435,58.8371039 C320.027109,58.5799942 318.268489,58.4545748 314.749698,58.2115748" id="Fill-10" fill="#42210B"></path>
                    </g>
                    <g id="Group-12" opacity="0.125558036" transform="translate(0.000000, 105.000000)">
                        <path d="M55.97984,80.1217086 L60.1338462,80.1217086 L60.1338462,74.8413249 L55.97984,74.8413249 L55.97984,80.1217086 Z M18.7470062,116.786359 L24.1670246,116.786359 L23.9472523,61.4203496 L47.3653846,61.7995261 L47.3653846,56.50978 L35.0256338,56.50978 L35.0256338,37.9597796 L24.2041692,37.9597796 L24.2041692,19.4082188 L18.7470062,19.4082188 L18.7470062,116.786359 Z M91.9126123,116.786359 L97.1484554,116.786359 L97.1484554,19.4082188 L91.9126123,19.4082188 L91.9126123,37.9597796 L80.8729231,37.9597796 L80.8729231,56.50978 L69.1832031,56.50978 L69.1832031,61.7901637 L91.9126123,61.7901637 L91.9126123,116.786359 Z M115.720763,135.511124 L73.3403046,135.511124 L73.3403046,98.8464735 L42.6665908,98.8464735 L42.8120738,135.511124 L0.174698462,135.511124 L0.174698462,0.683453918 L42.7764769,0.683453918 L42.7764769,19.2350147 L53.5979415,19.2350147 L53.5979415,37.7850152 L62.3006154,37.7850152 L62.3006154,19.2350147 L73.3403046,19.2350147 L73.3403046,0.683453918 L115.720763,0.683453918 L115.720763,135.511124 Z" id="Fill-1" fill="#000000"></path>
                        <path d="M147.541317,116.786359 L152.780255,116.786359 L152.780255,19.4097792 L147.541317,19.4097792 L147.541317,116.786359 Z M128.969009,135.511124 L171.352563,135.511124 L171.352563,0.685014316 L128.969009,0.685014316 L128.969009,135.511124 Z" id="Fill-3" fill="#000000"></path>
                        <path d="M230.878357,61.7901637 L235.24904,61.7901637 L235.24904,56.7266752 L230.878357,56.7266752 L230.878357,61.7901637 Z M202.953345,116.786359 L208.192283,116.786359 L208.192283,43.4586189 L223.345738,43.4586189 L223.345738,38.3951304 L208.192283,38.3951304 L208.192283,19.4082188 L202.953345,19.4082188 L202.953345,116.786359 Z M257.718437,116.786359 L262.955828,116.786359 L262.955828,19.4082188 L257.718437,19.4082188 L257.718437,74.4044137 L242.568077,74.4044137 L242.568077,79.6863578 L257.718437,79.6863578 L257.718437,116.786359 Z M281.528135,135.511124 L239.146129,135.511124 L239.146129,98.4111227 L226.764591,98.4111227 L226.764591,135.511124 L184.381037,135.511124 L184.381037,0.683453918 L226.764591,0.683453918 L226.764591,19.6703655 L239.146129,19.6703655 L239.146129,0.683453918 L281.528135,0.683453918 L281.528135,135.511124 Z" id="Fill-5" fill="#000000"></path>
                        <g id="Group-9" transform="translate(294.306588, 0.000000)">
                            <mask id="mask-4" fill="white">
                                <use xlink:href="#path-3"></use>
                            </mask>
                            <g id="Clip-8"></g>
                            <path d="M18.8227933,116.811793 L78.6085994,116.977195 L78.6085994,111.723338 L24.0617317,111.723338 L24.0617317,61.7906319 L65.8370425,61.7906319 L65.8370425,56.5086878 L24.0617317,56.5086878 L24.0617317,24.690631 L78.6085994,24.690631 L78.6085994,19.4086869 L18.8227933,19.4086869 L18.8227933,116.811793 Z M97.1809071,135.755014 L0.250485572,135.485065 L0.250485572,0.683922038 L97.1809071,0.683922038 L97.1809071,43.4153959 L84.4093502,43.4153959 L84.4093502,80.5153968 L42.6340394,80.5153968 L42.6340394,92.9985733 L97.1809071,92.9985733 L97.1809071,135.755014 Z" id="Fill-7" fill="#000000" mask="url(#mask-4)"></path>
                        </g>
                        <path d="M477.424194,48.8060997 L482.660037,48.8060997 L482.660037,33.4861212 L477.424194,33.4861212 L477.424194,48.8060997 Z M477.424194,116.677131 L482.660037,116.677131 L482.660037,88.6992113 L477.424194,88.6992113 L477.424194,116.677131 Z M422.874231,116.761392 L428.111622,116.809765 L428.111622,61.6809359 L463.352575,61.6809359 L463.352575,79.57713 L468.591514,79.57713 L468.591514,56.4005522 L428.111622,56.4005522 L428.111622,25.0178463 L468.373289,25.0178463 L468.373289,19.3005514 L422.874231,19.3005514 L422.874231,116.761392 Z M446.683929,135.704613 L404.301923,135.317634 L404.301923,0.57578652 L486.945597,0.57578652 L486.945597,14.7597959 L501.230797,14.7597959 L501.230797,67.5308646 L487.163822,67.5308646 L487.163822,69.9744464 L501.230797,69.9744464 L501.230797,135.401896 L458.851886,135.401896 L458.851886,98.3018949 L446.683929,98.3018949 L446.683929,135.704613 Z" id="Fill-10" fill="#000000"></path>
                    </g>
                    <path d="M73.4524754,91 L73.4524754,109.573925 L62.369267,109.573925 L62.369267,128.14785 L53.6322868,128.14785 L53.6322868,109.573925 L42.7681633,109.573925 L42.7681633,91 L0,91 L0,226 L42.8054544,226 L42.6625054,189.288062 L73.4524754,189.288062 L73.4524754,226 L116,226 L116,91 L73.4524754,91 Z M69.2789863,146.896765 L81.0147878,146.896765 L81.0147878,128.32284 L92.0995499,128.32284 L92.0995499,109.748915 L97.3544792,109.748915 L97.3544792,207.251085 L92.0995499,207.251085 L92.0995499,152.185522 L69.2789863,152.185522 L69.2789863,146.896765 Z M18.6455208,109.748915 L24.1241963,109.748915 L24.1241963,128.32284 L34.9883198,128.32284 L34.9883198,146.896765 L47.3751607,146.896765 L47.3751607,152.193334 L23.8678204,151.813668 L24.0869053,207.251085 L18.6455208,207.251085 L18.6455208,109.748915 Z M56.0235748,170.540709 L60.1939563,170.540709 L60.1939563,165.253515 L56.0235748,165.253515 L56.0235748,170.540709 Z" id="Fill-13" fill="#552607"></path>
                    <path d="M128,226 L170,226 L170,91 L128,91 L128,226 Z M146.40577,207.249523 L151.597298,207.249523 L151.597298,109.747353 L146.40577,109.747353 L146.40577,207.249523 Z" id="Fill-14" fill="#42210B"></path>
                    <path d="M239.682168,91 L239.682168,110.0114 L227.319377,110.0114 L227.319377,91 L185,91 L185,226 L227.319377,226 L227.319377,188.85215 L239.682168,188.85215 L239.682168,226 L282,226 L282,91 L239.682168,91 Z M243.097389,164.816041 L258.226354,164.816041 L258.226354,109.748915 L263.45736,109.748915 L263.45736,207.251085 L258.226354,207.251085 L258.226354,170.104797 L243.097389,170.104797 L243.097389,164.816041 Z M203.544186,109.748915 L208.773646,109.748915 L208.773646,128.760315 L223.904157,128.760315 L223.904157,133.828771 L208.773646,133.828771 L208.773646,207.251085 L203.544186,207.251085 L203.544186,109.748915 Z M231.426915,152.183959 L235.79098,152.183959 L235.79098,147.11394 L231.426915,147.11394 L231.426915,152.183959 Z" id="Fill-15" fill="#42210B"></path>
                    <path d="M294,91 L294,225.73019 L391,226 L391,183.26713 L336.413978,183.26713 L336.413978,170.790379 L378.219275,170.790379 L378.219275,133.707917 L391,133.707917 L391,91 L294,91 Z M312.587188,207.068091 L312.587188,109.715126 L372.41591,109.715126 L372.41591,114.994351 L317.828338,114.994351 L317.828338,146.796028 L359.633636,146.796028 L359.633636,152.075253 L317.828338,152.075253 L317.828338,201.980696 L372.41591,201.980696 L372.41591,207.233408 L312.587188,207.068091 Z" id="Fill-16" fill="#42210B"></path>
                    <path d="M405,91 L405,225.611836 L447.413978,226 L447.413978,188.631813 L459.590669,188.631813 L459.590669,225.696016 L502,225.696016 L502,160.331697 L487.921378,160.331697 L487.921378,157.890473 L502,157.890473 L502,105.171882 L487.704546,105.171882 L487.704546,91 L405,91 Z M423.587188,207.075058 L423.587188,109.706697 L469.118907,109.706697 L469.118907,115.418476 L428.828338,115.418476 L428.828338,146.77246 L469.337288,146.77246 L469.337288,169.926674 L464.094589,169.926674 L464.094589,152.047748 L428.828338,152.047748 L428.828338,207.121824 L423.587188,207.075058 Z M478.174759,139.185335 L483.414361,139.185335 L483.414361,123.87858 L478.174759,123.87858 L478.174759,139.185335 Z M478.174759,206.990878 L483.414361,206.990878 L483.414361,179.039954 L478.174759,179.039954 L478.174759,206.990878 Z" id="Fill-17" fill="#42210B"></path>
                    <path d="M83.1850262,100 L83.1850262,118.86564 L72.1421731,118.86564 L72.1421731,124 L107,124 L107,100 L83.1850262,100 Z M10,100 L10,124 L44.859375,124 L44.859375,118.86564 L34.0348091,118.86564 L34.0348091,100 L10,100 Z" id="Fill-18" fill="#FFC320"></path>
                    <polygon id="Fill-19" fill="#FFE020" points="72.1437213 123 72.1437213 136.97562 60.4506512 136.97562 57.2026622 136.97562 44.859375 136.97562 44.859375 123 10 123 10 147 107 147 107 123"></polygon>
                    <polygon id="Fill-20" fill="#FFC320" points="10 147 10 171 33.8536772 171 33.8180701 161.479405 47.2435042 161.70444 47.2435042 171 69.9747829 171 69.9747829 161.70444 83.1850262 161.70444 83.1850262 171 107 171 107 147"></polygon>
                    <path d="M83.1850262,217 L107,217 L107,171 L83.1850262,171 L83.1850262,217 Z M47.2435042,180.313353 L69.9763311,180.313353 L69.9763311,171 L47.2435042,171 L47.2435042,180.313353 Z M10,171 L10,217 L34.0348091,217 L33.8536772,171 L10,171 Z" id="Fill-21" fill="#FF9920"></path>
                    <polygon id="Fill-22" fill="#FFC320" points="138 124 162 124 162 100 138 100"></polygon>
                    <polygon id="Fill-23" fill="#FFE020" points="138 147 162 147 162 123 138 123"></polygon>
                    <polygon id="Fill-24" fill="#FFC320" points="138 171 162 171 162 147 138 147"></polygon>
                    <polygon id="Fill-25" fill="#FF9920" points="138 217 162 217 162 171 138 171"></polygon>
                    <path d="M248.363404,124 L272,124 L272,100 L248.363404,100 L248.363404,124 Z M194,100 L194,124 L232.678905,124 L232.678905,119.31574 L217.636596,119.31574 L217.636596,100 L194,100 Z" id="Fill-26" fill="#FFC320"></path>
                    <path d="M248.363404,147 L272,147 L272,123 L248.363404,123 L248.363404,147 Z M194,123 L194,147 L217.636596,147 L217.636596,146.792632 L221.721725,146.792632 L221.721725,147 L244.496435,147 L244.496435,137.199062 L232.678905,137.199062 L232.678905,123 L194,123 Z" id="Fill-27" fill="#FFE020"></path>
                    <path d="M248.362938,147 L248.362938,147.326301 L244.495893,147.326301 L244.495893,147 L221.720735,147 L221.720735,161.70444 L233.324942,161.70444 L233.324942,171 L272,171 L272,147 L248.362938,147 Z M194,171 L217.637062,171 L217.637062,147 L194,147 L194,171 Z" id="Fill-28" fill="#FFC320"></path>
                    <path d="M233.324942,171 L233.324942,179.877741 L248.362938,179.877741 L248.362938,217 L272,217 L272,171 L233.324942,171 Z M194,217 L217.637062,217 L217.637062,171 L194,171 L194,217 Z" id="Fill-29" fill="#FF9920"></path>
                    <polygon id="Fill-30" fill="#FFC320" points="304 124 382 124 382 100 304 100"></polygon>
                    <polygon id="Fill-31" fill="#FFE020" points="304 123 304 147 369.286812 147 369.286812 136.97562 327.702424 136.97562 327.702424 123.485466 382 123.485466 382 123"></polygon>
                    <polygon id="Fill-32" fill="#FFC320" points="304 147 304 171 327.961347 171 327.961347 161.70444 370 161.70444 370 147"></polygon>
                    <polygon id="Fill-33" fill="#FF9920" points="304 171 304 216.783994 382 217 382 193.09324 327.702424 193.09324 327.702424 171"></polygon>
                    <polygon id="Fill-34" fill="#FFC320" points="414 100 414 124 492 124 492 114.369457 477.778546 114.369457 477.778546 100"></polygon>
                    <path d="M414,147 L492,147 L492,123 L414,123 L414,147 Z M437.702424,136.97562 L468.300658,136.97562 L468.300658,123.935566 L437.702424,123.935566 L437.702424,136.97562 Z" id="Fill-35" fill="#FFE020"></path>
                    <polygon id="Fill-36" fill="#FFC320" points="414 147 414 171 437.702424 171 437.702424 161.70444 454.29335 161.70444 454.29335 171 492 171 492 170.24774 477.995773 170.24774 477.995773 148.440225 492 148.440225 492 147"></polygon>
                    <path d="M454.29335,171 L454.29335,179.836053 L468.300658,179.836053 L468.300658,216.783994 L492,216.783994 L492,171 L454.29335,171 Z M414,171 L414,216.783994 L437.702424,217 L437.702424,171 L414,171 Z" id="Fill-37" fill="#FF9920"></path>
                </g>
            </g>
        </g>
    </g>
</svg>